{"asset":{"version":"2.0","generator":"VECTARY"},"nodes":[{"translation":[0,0,0],"scale":[0.01,0.01,0.01],"rotation":[-0.7071067811865475,0,0,0.7071067811865476],"name":"Box - baked","mesh":0}],"materials":[{"pbrMetallicRoughness":{"baseColorFactor":[0.0000569217657121931,0.00010718736234124402,0.0004925037871914326,1],"metallicFactor":0.01,"roughnessFactor":0},"name":"Milton 1","emissiveFactor":[0,0,0],"extensions":{},"alphaMode":"OPAQUE","doubleSided":false}],"meshes":[{"primitives":[{"mode":4,"attributes":{"POSITION":1,"NORMAL":2,"TEXCOORD_0":3},"material":0,"indices":0}]}],"accessors":[{"bufferView":0,"byteOffset":0,"componentType":5125,"count":324,"type":"SCALAR"},{"bufferView":1,"byteOffset":0,"componentType":5126,"count":92,"max":[50,50,100],"min":[-50,-50,0],"type":"VEC3"},{"bufferView":2,"byteOffset":0,"componentType":5126,"count":92,"type":"VEC3"},{"bufferView":3,"byteOffset":0,"componentType":5126,"count":92,"type":"VEC2"}],"bufferViews":[{"buffer":0,"byteOffset":0,"byteLength":1296,"target":34963},{"buffer":0,"byteOffset":1296,"byteLength":1104,"target":34962},{"buffer":0,"byteOffset":2400,"byteLength":1104,"target":34962},{"buffer":0,"byteOffset":3504,"byteLength":736,"target":34962}],"scene":0,"scenes":[{"nodes":[0],"name":"Project Name"}],"extensionsUsed":["KHR_texture_transform"],"buffers":[{"byteLength":4240,"uri":"data:application/octet-stream;base64,"}]}